HIERARCHY
ROOT pelvis
{
  OFFSET 0 100 0
  CHANNELS 6 Xposition Yposition Zposition Zrotation Xrotation Yrotation
  JOINT pelvis_right_femur
  {
    OFFSET -10.78128 -3.44521 -0.5502486
    CHANNELS 3 Zrotation Xrotation Yrotation
    JOINT right_femur_tibia
    {
      OFFSET -0.8047443 -44.0398 -0.1307829
      CHANNELS 3 Zrotation Xrotation Yrotation
      JOINT right_tibia_foot
      {
        OFFSET 3.006224 -47.83518 -5
        CHANNELS 3 Zrotation Xrotation Yrotation
        End Site
        {
          OFFSET 0 -5 15
        }
      }
    }
  }
  JOINT pelvis_left_femur
  {
    OFFSET 10.78128 -3.44521 -0.5502486
    CHANNELS 3 Zrotation Xrotation Yrotation
    JOINT left_femur_tibia
    {
      OFFSET 0.8047443 -44.0398 -0.1307829
      CHANNELS 3 Zrotation Xrotation Yrotation
      JOINT left_tibia_foot
      {
        OFFSET -4.370144 -48.10324 -4.275266
        CHANNELS 3 Zrotation Xrotation Yrotation
        End Site
        {
          OFFSET 0 -5 15
        }
      }
    }
  }
  JOINT pelvis_spine1
  {
    OFFSET 0 6.468898 -3.129235
    CHANNELS 3 Zrotation Xrotation Yrotation
    JOINT spine1
    {
      OFFSET 0 23.15396 4.99043
      CHANNELS 3 Zrotation Xrotation Yrotation
      JOINT spine2
      {
        OFFSET 0 20.79997 -5.064912
        CHANNELS 3 Zrotation Xrotation Yrotation
        JOINT neck
        {
          OFFSET 0 14.38658 9.616178
          CHANNELS 3 Zrotation Xrotation Yrotation
          End Site
          {
            OFFSET 0 20 0
          }
        }
      }
      JOINT right_manubrium
      {
        OFFSET -5.722621 16.35077 3.967754
        CHANNELS 3 Zrotation Xrotation Yrotation
        JOINT right_clavicle
        {
          OFFSET -13.16364 1.694482 -4.693211
          CHANNELS 3 Zrotation Xrotation Yrotation
          JOINT right_humerus
          {
            OFFSET -28.5034 -0.3100689 -2.792744
            CHANNELS 3 Zrotation Xrotation Yrotation
            JOINT right_radius
            {
              OFFSET -25.15693 0.02248979 -1.271978
              CHANNELS 3 Zrotation Xrotation Yrotation
              End Site
              {
                OFFSET -15 0 0
              }
            }
          }
        }
      }
      JOINT left_manubrium
      {
        OFFSET 5.722621 16.35077 3.967754
        CHANNELS 3 Zrotation Xrotation Yrotation
        JOINT left_clavicle
        {
          OFFSET 13.16364 1.694482 -4.693211
          CHANNELS 3 Zrotation Xrotation Yrotation
          JOINT left_humerus
          {
            OFFSET 29.39168 -1.063119 -2.237045
            CHANNELS 3 Zrotation Xrotation Yrotation
            JOINT left_radius
            {
              OFFSET 24.59957 -0.9528479 0.9047498
              CHANNELS 3 Zrotation Xrotation Yrotation
              End Site
              {
                OFFSET 15 -0 -0
              }
            }
          }
        }
      }
    }
  }
}
MOTION
Frames: 9
Frame Time: 0.0416666666667
-1675.243 90.46158 1876.012 -9.067222 3.3312 -102.4004 7.701869 11.43815 3.379495 -0 26.1333 -0 -6.336591 -12.53502 -4.711416 4.206269 -15.62028 -1.431833 -0 25.41025 -0 6.485098 2.979956 12.46572 2.236875 -6.943735 10.04647 1.135819 19.94351 -8.544871 0.6582211 17.16423 1.100089 -0.8454396 -18.60887 3.924139 -1.386357 -34.60432 14.27619 91.35338 12.03647 -14.42177 -0 0 32.57207 -23.41116 21.91767 11.37426 0.4369502 -25.62782 -10.54252 -95.74769 5.637768 41.94505 0 0 -6.072489 8.798527 14.05007 1.173507
-1680.933 90.48773 1876.055 -9.056084 3.361579 -102.5912 7.701869 11.43815 3.379495 -0 26.1333 -0 -6.336591 -12.53502 -4.711416 4.206269 -15.62028 -1.431833 -0 25.41025 -0 6.485098 2.979956 12.46572 2.236875 -6.943735 10.04647 1.135819 19.94351 -8.544871 0.6582211 17.16423 1.100089 -0.8454396 -18.60887 3.924139 -1.386357 -34.60432 14.27619 91.35338 12.03647 -14.42177 -0 0 32.57207 -23.41116 21.91767 11.37426 0.4369502 -25.62782 -10.54252 -95.74769 5.637768 41.94505 0 0 -6.072489 8.798527 14.05007 1.173507
-1686.624 90.51388 1876.079 -9.044845 3.391921 -102.782 7.701869 11.43815 3.379495 -0 26.1333 -0 -6.336591 -12.53502 -4.711416 4.206269 -15.62028 -1.431833 -0 25.41025 -0 6.485098 2.979956 12.46572 2.236875 -6.943735 10.04647 1.135819 19.94351 -8.544871 0.6582211 17.16423 1.100089 -0.8454396 -18.60887 3.924139 -1.386357 -34.60432 14.27619 91.35338 12.03647 -14.42177 -0 0 32.57207 -23.41116 21.91767 11.37426 0.4369502 -25.62782 -10.54252 -95.74769 5.637768 41.94505 0 0 -6.072489 8.798527 14.05007 1.173507
-1692.314 90.54003 1876.084 -9.033504 3.422226 -102.9728 7.701869 11.43815 3.379495 -0 26.1333 -0 -6.336591 -12.53502 -4.711416 4.206269 -15.62028 -1.431833 -0 25.41025 -0 6.485098 2.979956 12.46572 2.236875 -6.943735 10.04647 1.135819 19.94351 -8.544871 0.6582211 17.16423 1.100089 -0.8454396 -18.60887 3.924139 -1.386357 -34.60432 14.27619 91.35338 12.03647 -14.42177 -0 0 32.57207 -23.41116 21.91767 11.37426 0.4369502 -25.62782 -10.54252 -95.74769 5.637768 41.94505 0 0 -6.072489 8.798527 14.05007 1.173507
-1698.005 90.56618 1876.069 -9.022061 3.452493 -103.1637 7.701869 11.43815 3.379495 -0 26.1333 -0 -6.336591 -12.53502 -4.711416 4.206269 -15.62028 -1.431833 -0 25.41025 -0 6.485098 2.979956 12.46572 2.236875 -6.943735 10.04647 1.135819 19.94351 -8.544871 0.6582211 17.16423 1.100089 -0.8454396 -18.60887 3.924139 -1.386357 -34.60432 14.27619 91.35338 12.03647 -14.42177 -0 0 32.57207 -23.41116 21.91767 11.37426 0.4369502 -25.62782 -10.54252 -95.74769 5.637768 41.94505 0 0 -6.072489 8.798527 14.05007 1.173507
-1703.695 90.59234 1876.036 -9.010517 3.482722 -103.3545 7.701869 11.43815 3.379495 -0 26.1333 -0 -6.336591 -12.53502 -4.711416 4.206269 -15.62028 -1.431833 -0 25.41025 -0 6.485098 2.979956 12.46572 2.236875 -6.943735 10.04647 1.135819 19.94351 -8.544871 0.6582211 17.16423 1.100089 -0.8454396 -18.60887 3.924139 -1.386357 -34.60432 14.27619 91.35338 12.03647 -14.42177 -0 0 32.57207 -23.41116 21.91767 11.37426 0.4369502 -25.62782 -10.54252 -95.74769 5.637768 41.94505 0 0 -6.072489 8.798527 14.05007 1.173507
-1709.385 90.61849 1875.983 -8.998872 3.512912 -103.5454 7.701869 11.43815 3.379495 -0 26.1333 -0 -6.336591 -12.53502 -4.711416 4.206269 -15.62028 -1.431833 -0 25.41025 -0 6.485098 2.979956 12.46572 2.236875 -6.943735 10.04647 1.135819 19.94351 -8.544871 0.6582211 17.16423 1.100089 -0.8454396 -18.60887 3.924139 -1.386357 -34.60432 14.27619 91.35338 12.03647 -14.42177 -0 0 32.57207 -23.41116 21.91767 11.37426 0.4369502 -25.62782 -10.54252 -95.74769 5.637768 41.94505 0 0 -6.072489 8.798527 14.05007 1.173507
-1715.076 90.64464 1875.911 -8.987126 3.543063 -103.7363 7.701869 11.43815 3.379495 -0 26.1333 -0 -6.336591 -12.53502 -4.711416 4.206269 -15.62028 -1.431833 -0 25.41025 -0 6.485098 2.979956 12.46572 2.236875 -6.943735 10.04647 1.135819 19.94351 -8.544871 0.6582211 17.16423 1.100089 -0.8454396 -18.60887 3.924139 -1.386357 -34.60432 14.27619 91.35338 12.03647 -14.42177 -0 0 32.57207 -23.41116 21.91767 11.37426 0.4369502 -25.62782 -10.54252 -95.74769 5.637768 41.94505 0 0 -6.072489 8.798527 14.05007 1.173507
-1720.765 90.67079 1875.82 -8.97528 3.573175 -103.9272 7.701869 11.43815 3.379495 -0 26.1333 -0 -6.336591 -12.53502 -4.711416 4.206269 -15.62028 -1.431833 -0 25.41025 -0 6.485098 2.979956 12.46572 2.236875 -6.943735 10.04647 1.135819 19.94351 -8.544871 0.6582211 17.16423 1.100089 -0.8454396 -18.60887 3.924139 -1.386357 -34.60432 14.27619 91.35338 12.03647 -14.42177 -0 0 32.57207 -23.41116 21.91767 11.37426 0.4369502 -25.62782 -10.54252 -95.74769 5.637768 41.94505 0 0 -6.072489 8.798527 14.05007 1.173507
